<svg xmlns="http://www.w3.org/2000/svg" viewBox="0 0 214.37 76.93"><defs><style>.cls-1{fill:#fff;}</style></defs><g id="Layer_2" data-name="Layer 2"><g id="圖層_1" data-name="圖層 1"><path class="cls-1" d="M130.69,45q0,4.07-3.35,4.07a5,5,0,0,1-4-2.1L102,19.69V45.13Q102,49,97.83,49q-3.58,0-3.59-3.89V10.23q0-3.89,3.59-3.89a5,5,0,0,1,4.19,2l21,26.69V10.23q0-3.89,3.71-3.89,4,0,4,3.89Z"/><path class="cls-1" d="M174.11,44.56c0,2.19-1.27,3.29-3.83,3.29H142.81q-6.34,0-6.35-5.75V13.19q0-5.62,6-5.62H170c2.28,0,3.42,1.21,3.42,3.65a2.93,2.93,0,0,1-1,2.21,3.66,3.66,0,0,1-2.4.9H147.9a4.46,4.46,0,0,0-2.88.72,4,4,0,0,0-.77,2.81v5.81h23a3.1,3.1,0,0,1,2.39,1,3.81,3.81,0,0,1,.84,2.51c0,2.24-1.16,3.35-3.47,3.35H144.31v7.25c0,2.15,1.31,3.23,3.95,3.23h22.32A3.24,3.24,0,0,1,173.1,42,3.33,3.33,0,0,1,174.11,44.56Z"/><path class="cls-1" d="M214.37,10.47a3.25,3.25,0,0,1-1,2.39,3.16,3.16,0,0,1-2.33,1H198.39V44.23q0,4.25-3.59,4.25c-2.72,0-4.07-1.44-4.07-4.31V13.82H179.18a3.21,3.21,0,0,1-2.52-1.08,3.19,3.19,0,0,1-1-2.45q0-3.34,3.48-3.35H211A3.06,3.06,0,0,1,213.41,8,3.44,3.44,0,0,1,214.37,10.47Z"/><path class="cls-1" d="M11.29,69.46q0,4.79-5,4.79-4.57,0-4.57-4.86V25.79Q1.71,21,6.28,21q5,0,5,4.79Z"/><circle class="cls-1" cx="6.5" cy="6.5" r="6.5"/><path class="cls-1" d="M86.72,14.2c-.32-.37-.66-.73-1-1.09l-.13,0-1.92,0a1.15,1.15,0,0,0-1.17,1.14l0,3.46a1.15,1.15,0,0,0,1.14,1.17l1.92,0a1.15,1.15,0,0,0,1.17-1.14l0-3.46A.13.13,0,0,0,86.72,14.2Z"/><path class="cls-1" d="M78.36,48.48l-8.13-.1a9.89,9.89,0,0,0,.15-12.55l8.13.1.07-5.61-4.36-.05.31-25.33a37.85,37.85,0,1,0-.83,68.69l.24-19.92,4.36,0Zm-26,10.76a18,18,0,1,1,18-18A18,18,0,0,1,52.37,59.24Z"/><rect class="cls-1" x="75.55" y="13.78" width="5.77" height="4.23" rx="1.15" transform="translate(61.59 94.13) rotate(-89.3)"/><path class="cls-1" d="M76.41,8.37a1.16,1.16,0,0,0,1.14,1.16l1.93,0a1.15,1.15,0,0,0,1.14-1,36.51,36.51,0,0,0-4.18-2.68Z"/><rect class="cls-1" x="81.6" y="23.08" width="5.77" height="4.23" rx="1.15" transform="translate(58.26 109.37) rotate(-89.3)"/><path class="cls-1" d="M78.8,65.31l-1.92,0a1.17,1.17,0,0,0-1.17,1.14l0,3.47a1.14,1.14,0,0,0,1.14,1.16l1.64,0c.48-.3,1-.62,1.43-.95a1.1,1.1,0,0,0,0-.18l0-3.47A1.14,1.14,0,0,0,78.8,65.31Z"/><rect class="cls-1" x="75.03" y="56.83" width="5.77" height="4.23" rx="1.15" transform="translate(18.02 136.14) rotate(-89.3)"/><rect class="cls-1" x="81.18" y="56.91" width="5.77" height="4.23" rx="1.15" transform="translate(24.03 142.37) rotate(-89.3)"/><rect class="cls-1" x="75.44" y="23.01" width="5.77" height="4.23" rx="1.15" transform="translate(52.25 103.14) rotate(-89.3)"/><path class="cls-1" d="M83,65.36a1.15,1.15,0,0,0-1.17,1.14l0,2.16a37.58,37.58,0,0,0,3.5-3.2,1,1,0,0,0-.39-.08Z"/><path class="cls-1" d="M61.24,33.34l-.07,5.6-3.73,0L57.36,45l3.74,0L61,50.64a8.65,8.65,0,1,0,.21-17.3Z"/><path class="cls-1" d="M98.19,53.73a1.72,1.72,0,0,1,.88.19.81.81,0,0,1,.42.8,6.62,6.62,0,0,1-.16.82,22.1,22.1,0,0,1-1.08,3.09V70.25a1.1,1.1,0,0,1-1.82.8.92.92,0,0,1-.31-.8V63l-.07.11a1.08,1.08,0,0,1-.92.44,1.42,1.42,0,0,1-.91-.3,1,1,0,0,1-.28-.75,1.36,1.36,0,0,1,.22-.64,28.28,28.28,0,0,0,3.33-7.49A.88.88,0,0,1,98.19,53.73ZM100.76,55h8.37a1.2,1.2,0,0,1,1.29,1.35v2.83h.76a1.14,1.14,0,0,1,.78.21,1,1,0,0,1,.21.76,1.29,1.29,0,0,1-.17.73,1,1,0,0,1-.82.34h-.76v3.12c0,.77-.48,1.16-1.37,1.16h-4.26c0,.12-.05.24-.07.36a9,9,0,0,1-3.12,5,1.49,1.49,0,0,1-.84.32.88.88,0,0,1-.59-.26,1,1,0,0,1-.32-.73.7.7,0,0,1,.15-.45,5.65,5.65,0,0,1,.44-.55,8.55,8.55,0,0,0,2.26-3.66l0,0h-2.57c-.5,0-.76-.33-.76-1s.21-1,.61-1h3a22.25,22.25,0,0,0,.1-2.28h-3.2a1,1,0,0,1-.74-.25,1.11,1.11,0,0,1-.23-.82,1.15,1.15,0,0,1,.23-.76,1.18,1.18,0,0,1,.74-.21h3.2v-2.3h-2.57c-.39,0-.6-.27-.63-.83S100.2,55,100.76,55Zm4.36,6.22c0,.84,0,1.6-.1,2.28h3.12c.16,0,.25,0,.25-.15V61.26Zm0-4.34v2.3h3.27V57.15c0-.15-.06-.23-.17-.23Z"/><path class="cls-1" d="M127.17,59.83a1.19,1.19,0,0,1,.76.23.87.87,0,0,1,.23.69v2.94a8.59,8.59,0,0,0,.32,2.44,11,11,0,0,0,2.72,3.44,1.21,1.21,0,0,1,.29.76,1.13,1.13,0,0,1-.32.74,1,1,0,0,1-.8.32,1.53,1.53,0,0,1-1-.4,23,23,0,0,1-2.09-3.32c0-.07-.06-.1-.1-.1s-.07,0-.11.12a19.18,19.18,0,0,1-2,3.23,1.22,1.22,0,0,1-.91.47,1.2,1.2,0,0,1-.78-.32,1.14,1.14,0,0,1-.33-.63.81.81,0,0,1-.41.12h-7.23a1.21,1.21,0,0,1-1.35-1.39V56.24a1.17,1.17,0,0,1-.25-.13.91.91,0,0,1-.23-.71,1,1,0,0,1,.23-.7,1.05,1.05,0,0,1,.69-.21h8.29a1,1,0,0,1,.72.21,1.32,1.32,0,0,1,0,1.33.89.89,0,0,1-.74.29h-7V68.26c0,.31.15.47.44.47h6.39c.45,0,.68.31.68.91a14.82,14.82,0,0,0,2.17-2.79,6.47,6.47,0,0,0,.64-3V60.75a.87.87,0,0,1,.25-.67A1.07,1.07,0,0,1,127.17,59.83Zm-9.66,2.8h1.35A1,1,0,0,1,120,63.69v3.2A1,1,0,0,1,118.86,68h-1.35a1,1,0,0,1-1.08-1.08v-3.2A.94.94,0,0,1,117.51,62.63Zm.84-5.38h3.4a1.08,1.08,0,0,1,1.24,1.2v2.07a1.08,1.08,0,0,1-1.24,1.2h-3.4a1.08,1.08,0,0,1-1.24-1.2V58.45A1.08,1.08,0,0,1,118.35,57.25Zm-.08,9.33c.19,0,.29-.09.29-.28v-2c0-.19-.1-.28-.29-.28h-.15c-.21,0-.32.09-.32.28v2c0,.19.11.28.32.28ZM121,60.06c.21,0,.31-.1.31-.3v-.54c0-.2-.1-.3-.31-.3h-1.88c-.22,0-.32.1-.32.3v.54c0,.2.1.3.32.3Zm.55,2.57h1.35A1,1,0,0,1,124,63.69v3.2A1,1,0,0,1,122.89,68h-1.35a1,1,0,0,1-1.08-1.08v-3.2A.94.94,0,0,1,121.54,62.63Zm.76,3.95c.19,0,.29-.09.29-.28v-2c0-.19-.1-.28-.29-.28h-.15c-.21,0-.32.09-.32.28v2c0,.19.11.28.32.28Zm4-12.93a1.33,1.33,0,0,1,.72.19.82.82,0,0,1,.34.73,9.84,9.84,0,0,1-.28,1.67h3a1.65,1.65,0,0,1,1,.25,1,1,0,0,1,.4.91,3.53,3.53,0,0,1-.07.66,16.6,16.6,0,0,1-.92,3.66,1.22,1.22,0,0,1-.28.32,1.33,1.33,0,0,1-1.43-.13.6.6,0,0,1-.21-.48,2.32,2.32,0,0,1,.12-.59,20.48,20.48,0,0,0,.72-2.6c0-.06-.05-.08-.15-.08h-2.72a29.72,29.72,0,0,1-1.24,3.42.88.88,0,0,1-.91.53,1.57,1.57,0,0,1-.7-.3.92.92,0,0,1-.21-.63,3.67,3.67,0,0,1,.15-.74,38.91,38.91,0,0,0,1.92-6.23A.75.75,0,0,1,126.26,53.65Z"/><path class="cls-1" d="M136.3,53.73a1.75,1.75,0,0,1,.63.17.7.7,0,0,1,.34.59,2.11,2.11,0,0,1-.21.82,16,16,0,0,1-1.33,2.24,14.16,14.16,0,0,1,.93,1.12,21,21,0,0,0,1.44-2.79q.27-.48.63-.48a1.42,1.42,0,0,1,.57.17.7.7,0,0,1,.33.59,3.87,3.87,0,0,1-.52,1.68,25.94,25.94,0,0,1-3,4.35,13.88,13.88,0,0,0,2-.44c-.06-.29-.12-.57-.19-.83a.9.9,0,0,0,0-.25.62.62,0,0,1,.68-.69.82.82,0,0,1,.84.54,11.1,11.1,0,0,1,.51,3.1c0,.44-.28.67-.84.68a.61.61,0,0,1-.66-.61c0-.12,0-.24,0-.36l-.72.25V70.4a.67.67,0,0,1-.25.59.81.81,0,0,1-.67.25.71.71,0,0,1-.62-.25.69.69,0,0,1-.23-.59V64a12.57,12.57,0,0,1-1.9.18,1.21,1.21,0,0,1-.74-.22,1,1,0,0,1-.23-.75,1,1,0,0,1,.17-.58.83.83,0,0,1,.66-.25h.1a24.81,24.81,0,0,0,1.69-2.17,26.1,26.1,0,0,0-2-2.17,1,1,0,0,1-.48-.76.77.77,0,0,1,.27-.59.81.81,0,0,1,.57-.24,2.25,2.25,0,0,1,.38,0,10.49,10.49,0,0,0,1.29-2.31Q135.94,53.73,136.3,53.73Zm-1.83,11.05a1.16,1.16,0,0,1,.57.11.59.59,0,0,1,.27.57c0,.06,0,.25-.06.55-.23,1.59-.44,2.82-.62,3.71a.65.65,0,0,1-.63.44,1.25,1.25,0,0,1-.76-.21.72.72,0,0,1-.21-.53,5.65,5.65,0,0,1,.13-.78c.19-.74.4-1.82.63-3.25A.68.68,0,0,1,134.47,64.78Zm4.32-.08a.82.82,0,0,1,.84.44,24.18,24.18,0,0,1,.3,3.42q0,.66-.84.69a.61.61,0,0,1-.66-.59c-.07-1.26-.14-2.28-.21-3.07,0-.19,0-.29,0-.3C138.18,64.91,138.38,64.71,138.79,64.7Zm10.57-10.29c.82,0,1.24.33,1.24,1V70.08a1,1,0,0,1-.33.88,1.49,1.49,0,0,1-1,.28h-.76a3.37,3.37,0,0,1-.68-.06,1,1,0,0,1-.69-.36,1.15,1.15,0,0,1-.24-.74.93.93,0,0,1,.07-.4.82.82,0,0,1,.42-.42,2.31,2.31,0,0,1,.69-.09h.57a.13.13,0,0,0,.15-.15V56.39a.13.13,0,0,0-.15-.15h-6.54c-.06,0-.08,0-.08.15V70.56c0,.45-.3.68-.89.68s-.84-.23-.84-.68V55.65c0-.82.35-1.24,1-1.24Zm-5.76,2.84a.87.87,0,0,1,.53.23,6.3,6.3,0,0,1,.78,1.52,3.55,3.55,0,0,1,.27,1h.59a.88.88,0,0,0,0-.15,15.35,15.35,0,0,0,.75-2.2c.07-.32.22-.48.43-.48a1.16,1.16,0,0,1,.67.15.63.63,0,0,1,.32.61,2,2,0,0,1-.11.54,14.1,14.1,0,0,1-.55,1.53h.36a1,1,0,0,1,.57.14q.21.14.21.63a1,1,0,0,1-.14.57.74.74,0,0,1-.64.26h-1.37v1.2h1.37a.83.83,0,0,1,.61.19.73.73,0,0,1,.17.57.78.78,0,0,1-.15.53.79.79,0,0,1-.63.23h-2.8v1.39c0,.19.1.28.31.28h2.28c.39,0,.59.26.59.76s-.2.77-.59.77h-3.12a.93.93,0,0,1-1.06-1V64.3h-.1a.86.86,0,0,1-.57-.17.8.8,0,0,1-.17-.59.94.94,0,0,1,.17-.59.86.86,0,0,1,.57-.17h1.44v-1.2H143.2a.66.66,0,0,1-.53-.21.76.76,0,0,1-.21-.62.74.74,0,0,1,.21-.63.8.8,0,0,1,.53-.14h.53c-.2-.49-.48-1.1-.83-1.84a.61.61,0,0,1-.08-.3.69.69,0,0,1,.06-.25.91.91,0,0,1,.32-.29A1.75,1.75,0,0,1,143.6,57.25Z"/><path class="cls-1" d="M154.7,54.49H159a1.08,1.08,0,0,1,1.2,1.24v4.18a1.06,1.06,0,0,1-1.2,1.2h-.62v2.14h1.38a1,1,0,0,1,.69.18.52.52,0,0,1,.17.32,1.07,1.07,0,0,1,.27-.44A28.45,28.45,0,0,0,164.29,61c-.46-.59-.89-1.2-1.3-1.82v0c-.21.33-.39.6-.54.8a1.07,1.07,0,0,1-.91.51,1.15,1.15,0,0,1-.67-.23.76.76,0,0,1-.3-.68,2.09,2.09,0,0,1,.32-.86,27,27,0,0,0,2.32-4.52.84.84,0,0,1,.25-.34.76.76,0,0,1,.38-.14,1.61,1.61,0,0,1,.78.19.87.87,0,0,1,.34.73,2.94,2.94,0,0,1-.21.91h3.48a1.52,1.52,0,0,1,1,.28,1,1,0,0,1,.46.88,5.19,5.19,0,0,1-1.14,2.74A19.58,19.58,0,0,1,167,61.11a10.63,10.63,0,0,0,1.9,1.29l1.23.63a.71.71,0,0,1,.37.59,1.09,1.09,0,0,1-.29.76.93.93,0,0,1-.68.32l-.23,0a1.38,1.38,0,0,1,.28.93v4a1.14,1.14,0,0,1-1.29,1.28h-5.38a1.14,1.14,0,0,1-1.31-1.28v-4a1.24,1.24,0,0,1,.32-1c-.2,0-.41.09-.61.12a.77.77,0,0,1-.63-.33.41.41,0,0,1-.05-.17.77.77,0,0,1-.16.48.86.86,0,0,1-.76.3h-1.38v3.2l1.82-.21a.8.8,0,0,1,.65.26A1,1,0,0,1,161,69a1.09,1.09,0,0,1-.23.7.85.85,0,0,1-.61.27,44.53,44.53,0,0,1-6.77.76,1.06,1.06,0,0,1-.72-.21,1.2,1.2,0,0,1-.25-.76,1,1,0,0,1,.21-.68,1.07,1.07,0,0,1,.76-.29V63a1,1,0,0,1,.21-.71,1,1,0,0,1,.7-.21.91.91,0,0,1,.71.21,1,1,0,0,1,.21.71v5.53l1.16-.11V61.11H154.7a1.07,1.07,0,0,1-1.23-1.2V55.73A1.09,1.09,0,0,1,154.7,54.49Zm3.2,4.79c.2,0,.3-.09.3-.28V56.64c0-.22-.1-.32-.3-.32h-2.13c-.2,0-.3.1-.3.32V59c0,.19.1.28.3.28Zm10.34,5a11.11,11.11,0,0,1-2.66-1.9,20,20,0,0,1-2.93,1.92l.27,0Zm-1.08,4.87c.32,0,.47-.15.47-.44v-2.2a.42.42,0,0,0-.47-.48H164c-.29,0-.44.16-.44.48v2.2a.39.39,0,0,0,.44.44Zm-3.25-11.83c.07.14.19.34.34.61a12.13,12.13,0,0,0,1.41,1.88,1.29,1.29,0,0,0,.2-.21,5.2,5.2,0,0,0,1.6-2.22c0-.1-.07-.15-.23-.15h-3a.79.79,0,0,1-.23,0A.5.5,0,0,1,163.91,57.34Z"/><path class="cls-1" d="M178.51,54.05a1,1,0,0,1,.76.27,1.12,1.12,0,0,1,.29.8,1.17,1.17,0,0,1-.29.68,16.48,16.48,0,0,1-2.15.55v2.8H179a1.07,1.07,0,0,1,.74.21.93.93,0,0,1,.25.76,1,1,0,0,1-.2.68,1,1,0,0,1-.79.31h-1.85v1a1.34,1.34,0,0,1,.4-.06.93.93,0,0,1,.44.17,4.9,4.9,0,0,1,.65,1,6.56,6.56,0,0,1,.79,2.39.84.84,0,0,1-.21.59,1,1,0,0,1-.76.25.92.92,0,0,1-.7-.4c-.18-.6-.38-1.17-.61-1.73v6a.89.89,0,0,1-.25.72.9.9,0,0,1-.74.27,1,1,0,0,1-.74-.27,1,1,0,0,1-.23-.72V64a11,11,0,0,1-1.82,3.78,1.06,1.06,0,0,1-.76.23.94.94,0,0,1-.55-.25.93.93,0,0,1-.21-.59,2.12,2.12,0,0,1,.21-.87,29.62,29.62,0,0,0,2.64-5.23h-1.73a1.09,1.09,0,0,1-.74-.23,1,1,0,0,1-.23-.76,1.1,1.1,0,0,1,.23-.76,1.14,1.14,0,0,1,.74-.21h2.22V56.73a14.24,14.24,0,0,1-1.9.19c-.64,0-1-.33-1-.91a.74.74,0,0,1,.61-.82,39,39,0,0,0,5-1A1.71,1.71,0,0,1,178.51,54.05ZM189.22,64.3a.72.72,0,0,1,.64.3,1.11,1.11,0,0,1,.19.69,1,1,0,0,1-.23.7.93.93,0,0,1-.68.31l-1.27.21v3.82a1.06,1.06,0,0,1-.21.63.88.88,0,0,1-.8.36,1,1,0,0,1-1-1V66.81a50.89,50.89,0,0,1-5.15.48,1,1,0,0,1-1.09-1.07.94.94,0,0,1,.25-.72,1.25,1.25,0,0,1,1-.36c1.7-.14,3.36-.29,5-.46v-10a1,1,0,0,1,1.71-.72,1,1,0,0,1,.29.72v9.81Zm-7.91-5a1.21,1.21,0,0,1,.68.31,7.81,7.81,0,0,1,1.62,1.84,2.67,2.67,0,0,1,.59,1.43.81.81,0,0,1-.23.62,1.06,1.06,0,0,1-.82.31.92.92,0,0,1-.57-.15.67.67,0,0,1-.27-.33c-.38-.62-1-1.56-1.86-2.83a.63.63,0,0,1-.13-.36,1,1,0,0,1,.07-.34,1,1,0,0,1,.44-.4A1.06,1.06,0,0,1,181.31,59.28Zm.83-4.64a1.15,1.15,0,0,1,.69.33,8.15,8.15,0,0,1,1.8,1.84,2.72,2.72,0,0,1,.63,1.5.69.69,0,0,1-.21.55,1,1,0,0,1-.78.29.69.69,0,0,1-.47-.14.67.67,0,0,1-.29-.34c-.44-.63-1.18-1.58-2.2-2.83a.66.66,0,0,1-.16-.36.93.93,0,0,1,.08-.34,1.07,1.07,0,0,1,.44-.4A1,1,0,0,1,182.14,54.64Z"/><path class="cls-1" d="M192.49,57.4h1.92v-3c0-.53.34-.81,1-.83s1,.28,1,.83v3H198a1,1,0,0,1,.68.19c.15.11.23.38.23.8a1.12,1.12,0,0,1-.13.66.89.89,0,0,1-.78.31h-1.68v3.82a8.82,8.82,0,0,0,1.15-.42,1.4,1.4,0,0,1,.6-.21,1,1,0,0,1,.76.27,1.09,1.09,0,0,1,.31.8,1,1,0,0,1-.31.68,11.84,11.84,0,0,1-2.51,1v4.37a1.46,1.46,0,0,1-.36,1.1,2.1,2.1,0,0,1-1.16.5h-1.59a1.37,1.37,0,0,1-.92-.42,1,1,0,0,1-.21-.57,1.13,1.13,0,0,1,.2-.74.89.89,0,0,1,.72-.34h1c.22,0,.33-.09.33-.23V65.9a10.82,10.82,0,0,1-1.68.23c-.69,0-1.06-.36-1.08-1a.85.85,0,0,1,.68-.92c.75-.15,1.44-.3,2.08-.45V59.36h-1.92a1,1,0,0,1-.65-.21.91.91,0,0,1-.27-.76.8.8,0,0,1,.92-1Zm7.3-1.24h3.12V54.57a1,1,0,0,1,.3-.71,1.06,1.06,0,0,1,.76-.21,1.1,1.1,0,0,1,.76.21.86.86,0,0,1,.32.71v1.59h3.28a.93.93,0,0,1,.66.21c.17.12.25.38.25.78a1.17,1.17,0,0,1-.15.69.92.92,0,0,1-.76.32h-3.28v2.26h2a2.12,2.12,0,0,1,1.28.33,1.37,1.37,0,0,1,.4,1.12,7.37,7.37,0,0,1-1.32,4.05,9.46,9.46,0,0,1-1.61,1.9,13.67,13.67,0,0,0,2.39,1.25,4.62,4.62,0,0,1,.86.42.83.83,0,0,1,.36.76,1,1,0,0,1-.42.84,1.23,1.23,0,0,1-.7.15,5.57,5.57,0,0,1-2.06-.7,19.46,19.46,0,0,1-2.09-1.43,25.5,25.5,0,0,1-2.58,1.48,6.73,6.73,0,0,1-2.17.73,1,1,0,0,1-.86-.33.83.83,0,0,1-.22-.59,1,1,0,0,1,.24-.68,26.45,26.45,0,0,0,4.11-2,18.44,18.44,0,0,1-1.73-2.15,4.85,4.85,0,0,1-1-2.05.78.78,0,0,1,.36-.63,1.15,1.15,0,0,1,.73-.21.81.81,0,0,1,.51.33c.24.4.46.75.65,1a13.18,13.18,0,0,0,2.18,2.53,2,2,0,0,0,.27-.23,6.62,6.62,0,0,0,2.09-3.74c0-.14-.16-.21-.4-.21H200a.9.9,0,0,1-.68-.23,1,1,0,0,1-.25-.76,1.06,1.06,0,0,1,.27-.78.9.9,0,0,1,.66-.23h2.88V58.16h-3.12a.87.87,0,0,1-.65-.25.91.91,0,0,1-.27-.76,1,1,0,0,1,.27-.8A.93.93,0,0,1,199.79,56.16Z"/></g></g></svg>